<?xml version="1.0" encoding="utf-8" ?>
<svg xmlns="http://www.w3.org/2000/svg" xmlns:xlink="http://www.w3.org/1999/xlink" width="23" height="23">
	<path fill="#555" transform="scale(0.0449219 0.0449219)" d="M237.431 151.355C237.403 143.855 238.276 136.322 236.404 128.999C233.55 117.837 240.968 107.802 245.748 98.1999C247.951 93.775 249.663 87.123 254.548 85.0305C261.531 84.3212 264.206 94.7228 267.093 100.255C271.086 107.907 277.233 116.162 276.545 125.181C276.33 127.998 275.146 130.637 274.867 133.457C274.297 139.239 274.754 145.521 274.771 151.355C290.241 148.487 316.96 144.961 332.872 144.655C339.648 144.525 346.409 148.379 352.554 150.805L377.672 160.591C381.865 162.205 386.404 164.343 390.842 165.106C407.15 167.908 407.326 150.414 412.39 149.208C422.731 146.746 419.536 170.206 398.756 174.436C401.041 181.309 403.718 188.072 406.263 194.853L445.138 298.461C450.694 313.085 450.018 318.12 439.535 332.767C411.448 372.01 353.851 363.663 336.327 319.421C332.077 308.693 333.897 309.169 337.759 299.39C340.373 292.774 342.786 286.067 345.297 279.41L376.208 197.602C379.157 189.907 381.849 182.083 384.905 174.436C374.19 169.7 363.004 165.732 352.048 161.574C331.559 153.799 335.771 154.321 313.998 156.714C300.943 158.149 287.851 159.727 274.771 160.871C275.159 172.479 273.055 179.371 261.254 183.764L261.254 361.683C279.057 362.076 291.139 364.769 293.13 385.617C314.528 386.096 315.978 400.849 315.991 418.231C316 429.563 301.721 425.808 293.008 425.803L254.548 425.812L219.791 425.825C211.896 425.826 195.629 429.258 195.425 418.758C195.117 402.906 198.592 385.5 218.288 385.231C221.782 367.633 234.001 360.882 251.153 361.683C250.999 355.131 251.15 348.55 251.151 341.994L251.153 183.764C239.724 179.888 237.03 172.399 237.431 160.871C232.218 160.722 226.998 159.91 221.823 159.281L197.059 156.219C178.52 153.908 179.581 153.663 162.59 160.409C150.518 165.202 138.703 170.539 126.298 174.436C127.471 178.172 129.329 181.837 130.738 185.504L157.231 254.756C162.657 269.053 167.887 283.523 173.745 297.648C177.496 306.69 179.67 308.384 176.091 318.04C157.363 368.568 88.6849 371.997 67.3587 323.745C61.2586 309.943 62.0508 311.23 66.8315 297.971C70.9166 286.641 75.3004 275.435 79.576 264.177L112.919 175.087C107.653 173.406 102.511 171.259 99.1532 166.654C96.028 162.368 90.349 147.468 100.137 149.77C109.346 151.934 99.0733 175.384 135.451 160.347C145.62 156.143 167.044 146.241 177.19 144.96C186.893 143.734 226.162 149.18 237.431 151.355ZM256.483 100.952C250.322 109.554 237.321 130.645 256.483 132.712C276.244 130.263 259.849 109.583 256.483 100.952ZM247.567 141.046L247.54 158.226C247.538 161.33 247.181 164.963 247.825 167.999C249.292 174.905 258.755 175.011 263.076 170.899C265.779 167.586 264.773 162.384 264.766 158.401L264.731 141.046C258.182 142.535 254.148 142.516 247.567 141.046ZM391.481 185.681C386.481 197.187 382.432 209.78 377.951 221.557L346.89 304.799L392.375 304.799L437.422 304.799C435.064 300.809 433.65 296.532 432.054 292.205L399.426 205.149C398.471 202.569 393.417 186.8 391.481 185.681ZM119.666 185.681C116.352 196.378 111.777 206.834 107.808 217.314L86.0301 275.584C82.4169 285.295 78.389 294.966 75.1455 304.799C80.3017 305.014 85.5292 304.805 90.6941 304.802L121.408 304.799L166.143 304.799C164.04 300.722 162.532 296.349 160.854 292.085L151.717 268.231C149.093 261.299 121.425 187.705 119.666 185.681ZM349.891 315.15C348.328 315.101 346.789 315.078 345.227 315.15C358.722 346.784 394.3 358.943 422.01 336.842C429.248 330.707 433.952 323.966 437.422 315.15C434.321 314.827 431.006 315.119 427.877 315.136L349.891 315.15ZM75.1455 315.15C84.7152 347.642 127.564 358.242 153.139 334.925C158.983 329.098 163.256 322.927 166.143 315.15L75.1455 315.15ZM241.461 371.703C234.791 373.67 230.037 378.497 228.472 385.231L269.866 385.231L282.709 385.231C280.48 369.696 269.001 371.672 256.55 371.698C251.558 371.708 246.437 371.437 241.461 371.703ZM237.431 395.335C217.761 395.289 205.624 390.92 205.702 415.682L273.375 415.682L305.764 415.682C305.906 391.086 296.622 395.325 276.703 395.325L237.431 395.335Z"/>
</svg>
