<?xml version="1.0" standalone="no"?>
<!DOCTYPE svg PUBLIC "-//W3C//DTD SVG 20010904//EN"
        "http://www.w3.org/TR/2001/REC-SVG-20010904/DTD/svg10.dtd">
<svg version="1.0" xmlns="http://www.w3.org/2000/svg"
     width="23" height="23" viewBox="0 0 1280.000000 1118.000000"
     preserveAspectRatio="xMidYMid meet">
    <metadata>
        Created by potrace 1.15, written by Peter Selinger 2001-2017
    </metadata>
    <g transform="translate(0.000000,1118.000000) scale(0.100000,-0.100000)"
       fill="#555" stroke="none">
        <path d="M6417 11169 c-137 -32 -262 -153 -302 -293 -23 -79 -16 -199 16 -281
35 -90 140 -191 233 -225 l68 -25 -7 -165 c-4 -91 -8 -167 -10 -168 -2 -2 -70
10 -152 27 -81 16 -282 57 -445 91 -164 33 -431 87 -593 120 -162 33 -428 87
-590 120 -162 33 -428 87 -590 120 -732 149 -923 188 -1430 291 -297 60 -552
112 -567 115 -22 4 -28 11 -28 30 0 37 -36 99 -71 125 -41 29 -121 37 -170 16
-54 -22 -92 -77 -97 -143 -5 -65 9 -104 54 -144 48 -41 103 -56 154 -41 48 14
108 64 116 97 3 13 12 24 19 24 16 0 204 -56 211 -63 3 -3 -82 -270 -190 -594
-107 -323 -290 -876 -406 -1228 -552 -1670 -645 -1950 -832 -2512 l-199 -603
-306 0 -305 0 17 -27 c177 -277 575 -513 1076 -637 559 -139 1329 -165 1949
-65 547 88 978 290 1190 558 44 54 100 148 100 166 0 3 -89 5 -198 5 l-198 0
-11 33 c-13 37 -1332 4012 -1506 4537 -63 190 -113 346 -112 348 1 1 38 -8 81
-22 43 -13 201 -61 349 -105 312 -92 979 -291 1845 -550 348 -103 656 -195
1285 -382 204 -61 404 -121 445 -134 l75 -23 -2 -104 c-2 -78 -357 -6694 -413
-7683 -5 -93 -14 -260 -20 -370 -6 -110 -15 -222 -20 -249 -33 -161 -187 -303
-395 -365 -98 -29 -184 -42 -645 -101 -628 -80 -891 -129 -1076 -203 -228 -92
-420 -252 -505 -422 l-30 -60 1601 -3 c880 -1 2320 -1 3201 0 l1600 3 -37 73
c-26 54 -60 98 -123 162 -251 254 -497 332 -1411 445 -582 72 -673 89 -807
155 -113 56 -192 131 -240 226 l-36 75 -8 247 c-8 259 -11 313 -59 1112 -61
1012 -99 1698 -145 2595 -9 171 -27 508 -41 750 -21 383 -46 831 -145 2635
-11 206 -28 524 -39 705 -10 182 -17 332 -15 333 3 4 65 -9 1045 -208 300 -61
677 -138 838 -170 160 -33 424 -87 585 -120 160 -32 537 -109 837 -170 300
-61 570 -116 600 -121 30 -6 58 -14 62 -18 8 -7 -31 -128 -372 -1156 -109
-330 -366 -1106 -570 -1725 -204 -619 -443 -1339 -529 -1600 l-157 -475 -222
-3 c-122 -1 -222 -5 -222 -8 0 -19 100 -141 168 -205 326 -307 842 -491 1572
-560 208 -20 804 -17 1015 5 674 70 1142 246 1416 532 71 75 122 145 145 199
l14 35 -283 0 -283 0 -252 763 c-139 419 -508 1532 -820 2472 -321 964 -564
1711 -558 1713 6 1 63 -8 126 -21 l115 -23 6 -51 c8 -66 37 -113 87 -141 174
-97 347 130 207 270 -73 73 -176 72 -247 -3 l-36 -38 -129 38 c-130 40 -635
190 -1155 345 -159 47 -415 124 -570 170 -156 47 -413 123 -573 171 -159 48
-461 137 -670 200 -209 62 -504 150 -655 195 -595 177 -553 163 -560 191 -4
13 -10 95 -14 181 l-8 156 52 7 c76 10 181 67 234 126 120 133 147 313 71 474
-81 170 -284 267 -468 224z m-3534 -2549 c333 -1004 675 -2034 759 -2290 l154
-465 -1520 -3 c-835 -1 -1521 0 -1524 2 -5 6 154 490 1158 3521 121 363 250
753 287 867 37 114 70 204 74 200 4 -4 279 -828 612 -1832z m8499 -2705 c391
-1177 713 -2146 715 -2152 4 -10 -304 -13 -1521 -13 -839 0 -1526 3 -1526 6 0
6 439 1336 1080 3269 132 396 282 853 336 1015 53 162 99 299 102 304 3 5 27
-58 54 -140 27 -82 369 -1112 760 -2289z"/>
    </g>
</svg>
