<svg xmlns="http://www.w3.org/2000/svg" width="24" height="24" viewBox="0 0 24 24" style="fill: rgba(128, 128, 128, 100);">
  <style>
    .tada {
      transform-origin: center;
      animation: tada 1s ease-in-out infinite;
    }
    @keyframes tada {
      0% { transform: scale(1); }
      10%, 20% { transform: scale(0.9) rotate(-3deg); }
      30%, 50%, 70%, 90% { transform: scale(1.1) rotate(3deg); }
      40%, 60%, 80% { transform: scale(1.1) rotate(-3deg); }
      100% { transform: scale(1) rotate(0); }
    }
  </style>
  <path class="tada" d="M12 4C9.243 4 7 6.243 7 9h2c0-1.654 1.346-3 3-3s3 1.346 3 3c0 1.069-.454 1.465-1.481 2.255-.382.294-.813.626-1.226 1.038C10.981 13.604 10.995 14.897 11 15v2h2v-2.009c0-.024.023-.601.707-1.284.32-.32.682-.598 1.031-.867C15.798 12.024 17 11.1 17 9c0-2.757-2.243-5-5-5zm-1 14h2v2h-2z"></path>
</svg>
